<svg xmlns="http://www.w3.org/2000/svg" viewBox="-14 185.392 610.6399987792969 204.19755755165124"> <svg xmlns="http://www.w3.org/2000/svg" viewBox="-0.09100341796875 -0.016095638275146484 267.00262451171875 173.17413330078125" height="64.19755755165123" width="98.9808454888285" y="255.392" x="56" preserveAspectRatio="xMinYMin" style="overflow: visible;"><path id="Layer_1-2" dataName="Layer 1" class="cls-1" d="M172.42-14.42h0a57.9,57.9,0,0,1,57.9,57.9v144.1a0,0,0,0,1,0,0h0a57.9,57.9,0,0,1-57.9-57.9V-14.42a0,0,0,0,1,0,0Z" transform="translate(420.55 89.11) rotate(157.4)" style="fill: #545454; fill-opacity: 1;"></path><path id="Layer_1-2" dataName="Layer 1" class="cls-1" d="M82.42-14.42h0a57.9,57.9,0,0,1,57.9,57.9v144.1a0,0,0,0,1,0,0h0a57.9,57.9,0,0,1-57.9-57.9V-14.42a0,0,0,0,1,0,0Z" transform="translate(247.46 123.7) rotate(157.4)" style="fill: #545454; fill-opacity: 1;"></path><path id="Layer_1-2" dataName="Layer 1" class="cls-1" d="M65.6,143.92c-3.07-7.37-5.58-14.94-8-22.53a29.5,29.5,0,1,0-55,21A29.85,29.85,0,0,0,7,149.47a57.9,57.9,0,0,0,69,19.22Z" style="fill: #c2292e; fill-opacity: 1;"></path></svg> <svg y="273.192" viewBox="3.1600000858306885 14.149999618530273 350.2799987792969 29.149999618530273" x="176.36" height="29.149999618530273" width="350.2799987792969" style="overflow: visible;"><g fill="#545454" fill-opacity="1" style=""><path d="M28.17 14.68L32.14 14.68L32.14 43.05L28.41 43.05L28.41 21.89L18.98 43.05L16.36 43.05L6.89 21.85L6.89 43.05L3.16 43.05L3.16 14.68L7.18 14.68L17.67 38.13L28.17 14.68ZM58.83 17.51L47.19 17.51L47.19 27.06L57.60 27.06L57.60 30.14L47.19 30.14L47.19 39.98L58.83 39.98L58.83 43.05L43.46 43.05L43.46 14.43L58.83 14.43L58.83 17.51ZM69.49 14.47L73.22 14.47L73.22 43.05L69.49 43.05L69.49 14.47ZM104.95 43.05L100.08 43.05L88.31 30.01L88.31 43.05L84.58 43.05L84.58 14.47L88.31 14.47L88.31 27.72L100.12 14.47L104.83 14.47L91.88 28.78L104.95 43.05ZM117.87 14.47L117.87 40.02L127.87 40.02L127.87 43.05L114.14 43.05L114.14 14.47L117.87 14.47ZM152.22 17.51L140.58 17.51L140.58 27.06L150.99 27.06L150.99 30.14L140.58 30.14L140.58 39.98L152.22 39.98L152.22 43.05L136.85 43.05L136.85 14.43L152.22 14.43L152.22 17.51ZM187.72 14.47Q192.40 14.47 195.82 16.22Q199.25 17.96 201.07 21.20Q202.89 24.44 202.89 28.82L202.89 28.82Q202.89 33.21 201.07 36.43Q199.25 39.65 195.82 41.35Q192.40 43.05 187.72 43.05L187.72 43.05L178.83 43.05L178.83 14.47L187.72 14.47ZM187.72 39.98Q193.26 39.98 196.17 37.04Q199.08 34.11 199.08 28.82L199.08 28.82Q199.08 23.49 196.15 20.50Q193.22 17.51 187.72 17.51L187.72 17.51L182.56 17.51L182.56 39.98L187.72 39.98ZM212.81 14.47L216.55 14.47L216.55 43.05L212.81 43.05L212.81 14.47ZM254.02 22.76L249.55 22.76Q248.36 20.25 246.10 18.88Q243.85 17.51 240.86 17.51L240.86 17.51Q237.86 17.51 235.47 18.88Q233.07 20.25 231.69 22.82Q230.32 25.38 230.32 28.74L230.32 28.74Q230.32 32.10 231.69 34.65Q233.07 37.19 235.47 38.56Q237.86 39.93 240.86 39.93L240.86 39.93Q245.04 39.93 247.75 37.43Q250.45 34.93 250.90 30.67L250.90 30.67L239.50 30.67L239.50 27.63L254.88 27.63L254.88 30.50Q254.55 34.03 252.66 36.96Q250.78 39.89 247.70 41.59Q244.63 43.30 240.86 43.30L240.86 43.30Q236.88 43.30 233.60 41.43Q230.32 39.57 228.41 36.24Q226.51 32.92 226.51 28.74L226.51 28.74Q226.51 24.56 228.41 21.22Q230.32 17.88 233.60 16.01Q236.88 14.15 240.86 14.15L240.86 14.15Q245.41 14.15 248.91 16.40Q252.42 18.66 254.02 22.76L254.02 22.76ZM264.80 14.47L268.53 14.47L268.53 43.05L264.80 43.05L264.80 14.47ZM278.12 14.47L297.47 14.47L297.47 17.51L289.68 17.51L289.68 43.05L285.95 43.05L285.95 17.51L278.12 17.51L278.12 14.47ZM326.25 43.05L323.96 36.70L311.49 36.70L309.20 43.05L305.26 43.05L315.59 14.64L319.90 14.64L330.19 43.05L326.25 43.05ZM312.56 33.66L322.89 33.66L317.73 19.23L312.56 33.66ZM343.43 14.47L343.43 40.02L353.44 40.02L353.44 43.05L339.70 43.05L339.70 14.47L343.43 14.47Z" transform="translate(0, 0)"></path></g></svg></svg>